<mxfile host="app.diagrams.net" modified="2024-04-24T14:08:49.180Z" agent="Mozilla/5.0 (Windows NT 10.0; Win64; x64) AppleWebKit/537.36 (KHTML, like Gecko) Chrome/124.0.0.0 Safari/537.36 Edg/124.0.0.0" etag="8Cy_4mr_Le7MEyVoE8TY" version="24.2.7" type="device">
  <diagram name="Page-1" id="2Z-Ag8hXDnBIArZpgmKs">
    <mxGraphModel dx="490" dy="578" grid="1" gridSize="10" guides="1" tooltips="1" connect="1" arrows="1" fold="1" page="1" pageScale="1" pageWidth="827" pageHeight="1169" math="0" shadow="0">
      <root>
        <mxCell id="0" />
        <mxCell id="1" parent="0" />
        <mxCell id="19VufMmk_MJ-0cq3kdmR-1" value="Alice" style="ellipse;whiteSpace=wrap;html=1;aspect=fixed;" vertex="1" parent="1">
          <mxGeometry x="280" y="40" width="50" height="50" as="geometry" />
        </mxCell>
        <mxCell id="19VufMmk_MJ-0cq3kdmR-2" value="Bob" style="ellipse;whiteSpace=wrap;html=1;aspect=fixed;" vertex="1" parent="1">
          <mxGeometry x="160" y="160" width="50" height="50" as="geometry" />
        </mxCell>
        <mxCell id="19VufMmk_MJ-0cq3kdmR-3" value="Charles" style="ellipse;whiteSpace=wrap;html=1;aspect=fixed;" vertex="1" parent="1">
          <mxGeometry x="400" y="160" width="50" height="50" as="geometry" />
        </mxCell>
        <mxCell id="19VufMmk_MJ-0cq3kdmR-4" value="" style="endArrow=classic;html=1;rounded=0;" edge="1" parent="1" source="19VufMmk_MJ-0cq3kdmR-1" target="19VufMmk_MJ-0cq3kdmR-2">
          <mxGeometry width="50" height="50" relative="1" as="geometry">
            <mxPoint x="260" y="310" as="sourcePoint" />
            <mxPoint x="310" y="260" as="targetPoint" />
          </mxGeometry>
        </mxCell>
        <mxCell id="19VufMmk_MJ-0cq3kdmR-5" value="" style="endArrow=classic;html=1;rounded=0;" edge="1" parent="1" source="19VufMmk_MJ-0cq3kdmR-2" target="19VufMmk_MJ-0cq3kdmR-3">
          <mxGeometry width="50" height="50" relative="1" as="geometry">
            <mxPoint x="260" y="310" as="sourcePoint" />
            <mxPoint x="310" y="260" as="targetPoint" />
          </mxGeometry>
        </mxCell>
        <mxCell id="19VufMmk_MJ-0cq3kdmR-6" value="Dora" style="ellipse;whiteSpace=wrap;html=1;aspect=fixed;" vertex="1" parent="1">
          <mxGeometry x="70" y="280" width="50" height="50" as="geometry" />
        </mxCell>
        <mxCell id="19VufMmk_MJ-0cq3kdmR-7" value="Elsa" style="ellipse;whiteSpace=wrap;html=1;aspect=fixed;" vertex="1" parent="1">
          <mxGeometry x="240" y="280" width="50" height="50" as="geometry" />
        </mxCell>
        <mxCell id="19VufMmk_MJ-0cq3kdmR-8" value="" style="endArrow=classic;html=1;rounded=0;" edge="1" parent="1" source="19VufMmk_MJ-0cq3kdmR-6" target="19VufMmk_MJ-0cq3kdmR-7">
          <mxGeometry width="50" height="50" relative="1" as="geometry">
            <mxPoint x="260" y="310" as="sourcePoint" />
            <mxPoint x="310" y="260" as="targetPoint" />
          </mxGeometry>
        </mxCell>
        <mxCell id="19VufMmk_MJ-0cq3kdmR-10" value="" style="endArrow=classic;html=1;rounded=0;" edge="1" parent="1" source="19VufMmk_MJ-0cq3kdmR-7" target="19VufMmk_MJ-0cq3kdmR-11">
          <mxGeometry width="50" height="50" relative="1" as="geometry">
            <mxPoint x="260" y="310" as="sourcePoint" />
            <mxPoint x="310" y="260" as="targetPoint" />
          </mxGeometry>
        </mxCell>
        <mxCell id="19VufMmk_MJ-0cq3kdmR-11" value="Fiona" style="ellipse;whiteSpace=wrap;html=1;aspect=fixed;" vertex="1" parent="1">
          <mxGeometry x="320" y="280" width="50" height="50" as="geometry" />
        </mxCell>
        <mxCell id="19VufMmk_MJ-0cq3kdmR-12" value="Greg" style="ellipse;whiteSpace=wrap;html=1;aspect=fixed;" vertex="1" parent="1">
          <mxGeometry x="490" y="280" width="50" height="50" as="geometry" />
        </mxCell>
        <mxCell id="19VufMmk_MJ-0cq3kdmR-13" value="" style="endArrow=classic;html=1;rounded=0;" edge="1" parent="1" source="19VufMmk_MJ-0cq3kdmR-3" target="19VufMmk_MJ-0cq3kdmR-6">
          <mxGeometry width="50" height="50" relative="1" as="geometry">
            <mxPoint x="260" y="310" as="sourcePoint" />
            <mxPoint x="310" y="260" as="targetPoint" />
          </mxGeometry>
        </mxCell>
        <mxCell id="19VufMmk_MJ-0cq3kdmR-14" value="" style="endArrow=classic;html=1;rounded=0;" edge="1" parent="1" source="19VufMmk_MJ-0cq3kdmR-11" target="19VufMmk_MJ-0cq3kdmR-12">
          <mxGeometry width="50" height="50" relative="1" as="geometry">
            <mxPoint x="260" y="310" as="sourcePoint" />
            <mxPoint x="310" y="260" as="targetPoint" />
          </mxGeometry>
        </mxCell>
        <mxCell id="19VufMmk_MJ-0cq3kdmR-15" value="Irene" style="ellipse;whiteSpace=wrap;html=1;aspect=fixed;" vertex="1" parent="1">
          <mxGeometry x="130" y="380" width="50" height="50" as="geometry" />
        </mxCell>
        <mxCell id="19VufMmk_MJ-0cq3kdmR-16" value="Harry" style="ellipse;whiteSpace=wrap;html=1;aspect=fixed;" vertex="1" parent="1">
          <mxGeometry x="10" y="380" width="50" height="50" as="geometry" />
        </mxCell>
        <mxCell id="19VufMmk_MJ-0cq3kdmR-17" value="" style="endArrow=classic;html=1;rounded=0;" edge="1" parent="1" source="19VufMmk_MJ-0cq3kdmR-12" target="19VufMmk_MJ-0cq3kdmR-16">
          <mxGeometry width="50" height="50" relative="1" as="geometry">
            <mxPoint x="260" y="310" as="sourcePoint" />
            <mxPoint x="310" y="260" as="targetPoint" />
          </mxGeometry>
        </mxCell>
        <mxCell id="19VufMmk_MJ-0cq3kdmR-18" value="" style="endArrow=classic;html=1;rounded=0;" edge="1" parent="1" source="19VufMmk_MJ-0cq3kdmR-16" target="19VufMmk_MJ-0cq3kdmR-15">
          <mxGeometry width="50" height="50" relative="1" as="geometry">
            <mxPoint x="260" y="310" as="sourcePoint" />
            <mxPoint x="310" y="260" as="targetPoint" />
          </mxGeometry>
        </mxCell>
        <mxCell id="19VufMmk_MJ-0cq3kdmR-19" value="BFS" style="text;html=1;align=center;verticalAlign=middle;resizable=0;points=[];autosize=1;strokeColor=none;fillColor=none;" vertex="1" parent="1">
          <mxGeometry x="15" y="30" width="50" height="30" as="geometry" />
        </mxCell>
        <mxCell id="19VufMmk_MJ-0cq3kdmR-21" value="1" style="text;html=1;align=center;verticalAlign=middle;resizable=0;points=[];autosize=1;strokeColor=none;fillColor=none;" vertex="1" parent="1">
          <mxGeometry x="285" y="88" width="30" height="30" as="geometry" />
        </mxCell>
        <mxCell id="19VufMmk_MJ-0cq3kdmR-22" value="2" style="text;html=1;align=center;verticalAlign=middle;resizable=0;points=[];autosize=1;strokeColor=none;fillColor=none;" vertex="1" parent="1">
          <mxGeometry x="215" y="138" width="30" height="30" as="geometry" />
        </mxCell>
        <mxCell id="19VufMmk_MJ-0cq3kdmR-23" value="3" style="text;html=1;align=center;verticalAlign=middle;resizable=0;points=[];autosize=1;strokeColor=none;fillColor=none;" vertex="1" parent="1">
          <mxGeometry x="355" y="148" width="30" height="30" as="geometry" />
        </mxCell>
        <mxCell id="19VufMmk_MJ-0cq3kdmR-24" value="4" style="text;html=1;align=center;verticalAlign=middle;resizable=0;points=[];autosize=1;strokeColor=none;fillColor=none;" vertex="1" parent="1">
          <mxGeometry x="115" y="298" width="30" height="30" as="geometry" />
        </mxCell>
        <mxCell id="19VufMmk_MJ-0cq3kdmR-25" value="5" style="text;html=1;align=center;verticalAlign=middle;resizable=0;points=[];autosize=1;strokeColor=none;fillColor=none;" vertex="1" parent="1">
          <mxGeometry x="215" y="288" width="30" height="30" as="geometry" />
        </mxCell>
        <mxCell id="19VufMmk_MJ-0cq3kdmR-26" value="6" style="text;html=1;align=center;verticalAlign=middle;resizable=0;points=[];autosize=1;strokeColor=none;fillColor=none;" vertex="1" parent="1">
          <mxGeometry x="295" y="288" width="30" height="30" as="geometry" />
        </mxCell>
        <mxCell id="19VufMmk_MJ-0cq3kdmR-27" value="7" style="text;html=1;align=center;verticalAlign=middle;resizable=0;points=[];autosize=1;strokeColor=none;fillColor=none;" vertex="1" parent="1">
          <mxGeometry x="465" y="288" width="30" height="30" as="geometry" />
        </mxCell>
        <mxCell id="19VufMmk_MJ-0cq3kdmR-28" value="8" style="text;html=1;align=center;verticalAlign=middle;resizable=0;points=[];autosize=1;strokeColor=none;fillColor=none;" vertex="1" parent="1">
          <mxGeometry x="5" y="428" width="30" height="30" as="geometry" />
        </mxCell>
        <mxCell id="19VufMmk_MJ-0cq3kdmR-30" value="9" style="text;html=1;align=center;verticalAlign=middle;resizable=0;points=[];autosize=1;strokeColor=none;fillColor=none;" vertex="1" parent="1">
          <mxGeometry x="150" y="428" width="30" height="30" as="geometry" />
        </mxCell>
        <mxCell id="19VufMmk_MJ-0cq3kdmR-31" value="INFIXE" style="text;html=1;align=center;verticalAlign=middle;resizable=0;points=[];autosize=1;strokeColor=none;fillColor=none;" vertex="1" parent="1">
          <mxGeometry y="528" width="60" height="30" as="geometry" />
        </mxCell>
        <mxCell id="19VufMmk_MJ-0cq3kdmR-32" value="Alice" style="ellipse;whiteSpace=wrap;html=1;aspect=fixed;" vertex="1" parent="1">
          <mxGeometry x="310" y="558" width="50" height="50" as="geometry" />
        </mxCell>
        <mxCell id="19VufMmk_MJ-0cq3kdmR-33" value="Bob" style="ellipse;whiteSpace=wrap;html=1;aspect=fixed;" vertex="1" parent="1">
          <mxGeometry x="190" y="678" width="50" height="50" as="geometry" />
        </mxCell>
        <mxCell id="19VufMmk_MJ-0cq3kdmR-34" value="Charles" style="ellipse;whiteSpace=wrap;html=1;aspect=fixed;" vertex="1" parent="1">
          <mxGeometry x="430" y="678" width="50" height="50" as="geometry" />
        </mxCell>
        <mxCell id="19VufMmk_MJ-0cq3kdmR-35" value="" style="endArrow=classic;html=1;rounded=0;" edge="1" parent="1" source="19VufMmk_MJ-0cq3kdmR-38" target="19VufMmk_MJ-0cq3kdmR-32">
          <mxGeometry width="50" height="50" relative="1" as="geometry">
            <mxPoint x="290" y="828" as="sourcePoint" />
            <mxPoint x="340" y="778" as="targetPoint" />
          </mxGeometry>
        </mxCell>
        <mxCell id="19VufMmk_MJ-0cq3kdmR-36" value="" style="endArrow=classic;html=1;rounded=0;" edge="1" parent="1" source="19VufMmk_MJ-0cq3kdmR-32" target="19VufMmk_MJ-0cq3kdmR-41">
          <mxGeometry width="50" height="50" relative="1" as="geometry">
            <mxPoint x="290" y="828" as="sourcePoint" />
            <mxPoint x="340" y="778" as="targetPoint" />
          </mxGeometry>
        </mxCell>
        <mxCell id="19VufMmk_MJ-0cq3kdmR-37" value="Dora" style="ellipse;whiteSpace=wrap;html=1;aspect=fixed;" vertex="1" parent="1">
          <mxGeometry x="100" y="798" width="50" height="50" as="geometry" />
        </mxCell>
        <mxCell id="19VufMmk_MJ-0cq3kdmR-38" value="Elsa" style="ellipse;whiteSpace=wrap;html=1;aspect=fixed;" vertex="1" parent="1">
          <mxGeometry x="270" y="798" width="50" height="50" as="geometry" />
        </mxCell>
        <mxCell id="19VufMmk_MJ-0cq3kdmR-39" value="" style="endArrow=classic;html=1;rounded=0;" edge="1" parent="1" source="19VufMmk_MJ-0cq3kdmR-37" target="19VufMmk_MJ-0cq3kdmR-45">
          <mxGeometry width="50" height="50" relative="1" as="geometry">
            <mxPoint x="290" y="828" as="sourcePoint" />
            <mxPoint x="340" y="778" as="targetPoint" />
          </mxGeometry>
        </mxCell>
        <mxCell id="19VufMmk_MJ-0cq3kdmR-40" value="" style="endArrow=classic;html=1;rounded=0;" edge="1" parent="1" source="19VufMmk_MJ-0cq3kdmR-33" target="19VufMmk_MJ-0cq3kdmR-38">
          <mxGeometry width="50" height="50" relative="1" as="geometry">
            <mxPoint x="290" y="828" as="sourcePoint" />
            <mxPoint x="340" y="778" as="targetPoint" />
          </mxGeometry>
        </mxCell>
        <mxCell id="19VufMmk_MJ-0cq3kdmR-41" value="Fiona" style="ellipse;whiteSpace=wrap;html=1;aspect=fixed;" vertex="1" parent="1">
          <mxGeometry x="350" y="798" width="50" height="50" as="geometry" />
        </mxCell>
        <mxCell id="19VufMmk_MJ-0cq3kdmR-42" value="Greg" style="ellipse;whiteSpace=wrap;html=1;aspect=fixed;" vertex="1" parent="1">
          <mxGeometry x="520" y="798" width="50" height="50" as="geometry" />
        </mxCell>
        <mxCell id="19VufMmk_MJ-0cq3kdmR-43" value="" style="endArrow=classic;html=1;rounded=0;" edge="1" parent="1" source="19VufMmk_MJ-0cq3kdmR-41" target="19VufMmk_MJ-0cq3kdmR-34">
          <mxGeometry width="50" height="50" relative="1" as="geometry">
            <mxPoint x="455" y="870" as="sourcePoint" />
            <mxPoint x="340" y="778" as="targetPoint" />
          </mxGeometry>
        </mxCell>
        <mxCell id="19VufMmk_MJ-0cq3kdmR-44" value="" style="endArrow=classic;html=1;rounded=0;" edge="1" parent="1" source="19VufMmk_MJ-0cq3kdmR-34" target="19VufMmk_MJ-0cq3kdmR-42">
          <mxGeometry width="50" height="50" relative="1" as="geometry">
            <mxPoint x="290" y="828" as="sourcePoint" />
            <mxPoint x="340" y="778" as="targetPoint" />
          </mxGeometry>
        </mxCell>
        <mxCell id="19VufMmk_MJ-0cq3kdmR-45" value="Irene" style="ellipse;whiteSpace=wrap;html=1;aspect=fixed;" vertex="1" parent="1">
          <mxGeometry x="160" y="898" width="50" height="50" as="geometry" />
        </mxCell>
        <mxCell id="19VufMmk_MJ-0cq3kdmR-46" value="Harry" style="ellipse;whiteSpace=wrap;html=1;aspect=fixed;" vertex="1" parent="1">
          <mxGeometry x="40" y="898" width="50" height="50" as="geometry" />
        </mxCell>
        <mxCell id="19VufMmk_MJ-0cq3kdmR-49" value="1" style="text;html=1;align=center;verticalAlign=middle;resizable=0;points=[];autosize=1;strokeColor=none;fillColor=none;" vertex="1" parent="1">
          <mxGeometry x="5" y="908" width="30" height="30" as="geometry" />
        </mxCell>
        <mxCell id="19VufMmk_MJ-0cq3kdmR-50" value="2" style="text;html=1;align=center;verticalAlign=middle;resizable=0;points=[];autosize=1;strokeColor=none;fillColor=none;" vertex="1" parent="1">
          <mxGeometry x="65" y="798" width="30" height="30" as="geometry" />
        </mxCell>
        <mxCell id="19VufMmk_MJ-0cq3kdmR-51" value="3" style="text;html=1;align=center;verticalAlign=middle;resizable=0;points=[];autosize=1;strokeColor=none;fillColor=none;" vertex="1" parent="1">
          <mxGeometry x="215" y="908" width="30" height="30" as="geometry" />
        </mxCell>
        <mxCell id="19VufMmk_MJ-0cq3kdmR-52" value="4" style="text;html=1;align=center;verticalAlign=middle;resizable=0;points=[];autosize=1;strokeColor=none;fillColor=none;" vertex="1" parent="1">
          <mxGeometry x="155" y="678" width="30" height="30" as="geometry" />
        </mxCell>
        <mxCell id="19VufMmk_MJ-0cq3kdmR-53" value="5" style="text;html=1;align=center;verticalAlign=middle;resizable=0;points=[];autosize=1;strokeColor=none;fillColor=none;" vertex="1" parent="1">
          <mxGeometry x="235" y="818" width="30" height="30" as="geometry" />
        </mxCell>
        <mxCell id="19VufMmk_MJ-0cq3kdmR-54" value="6" style="text;html=1;align=center;verticalAlign=middle;resizable=0;points=[];autosize=1;strokeColor=none;fillColor=none;" vertex="1" parent="1">
          <mxGeometry x="275" y="568" width="30" height="30" as="geometry" />
        </mxCell>
        <mxCell id="19VufMmk_MJ-0cq3kdmR-55" value="7" style="text;html=1;align=center;verticalAlign=middle;resizable=0;points=[];autosize=1;strokeColor=none;fillColor=none;" vertex="1" parent="1">
          <mxGeometry x="410" y="808" width="30" height="30" as="geometry" />
        </mxCell>
        <mxCell id="19VufMmk_MJ-0cq3kdmR-56" value="8" style="text;html=1;align=center;verticalAlign=middle;resizable=0;points=[];autosize=1;strokeColor=none;fillColor=none;" vertex="1" parent="1">
          <mxGeometry x="395" y="698" width="30" height="30" as="geometry" />
        </mxCell>
        <mxCell id="19VufMmk_MJ-0cq3kdmR-57" value="9" style="text;html=1;align=center;verticalAlign=middle;resizable=0;points=[];autosize=1;strokeColor=none;fillColor=none;" vertex="1" parent="1">
          <mxGeometry x="485" y="808" width="30" height="30" as="geometry" />
        </mxCell>
        <mxCell id="19VufMmk_MJ-0cq3kdmR-58" value="" style="endArrow=classic;html=1;rounded=0;" edge="1" parent="1" source="19VufMmk_MJ-0cq3kdmR-46" target="19VufMmk_MJ-0cq3kdmR-37">
          <mxGeometry width="50" height="50" relative="1" as="geometry">
            <mxPoint x="220" y="790" as="sourcePoint" />
            <mxPoint x="270" y="740" as="targetPoint" />
          </mxGeometry>
        </mxCell>
        <mxCell id="19VufMmk_MJ-0cq3kdmR-59" value="" style="endArrow=classic;html=1;rounded=0;" edge="1" parent="1" source="19VufMmk_MJ-0cq3kdmR-45" target="19VufMmk_MJ-0cq3kdmR-33">
          <mxGeometry width="50" height="50" relative="1" as="geometry">
            <mxPoint x="148" y="854" as="sourcePoint" />
            <mxPoint x="182" y="912" as="targetPoint" />
          </mxGeometry>
        </mxCell>
        <mxCell id="19VufMmk_MJ-0cq3kdmR-60" value="" style="endArrow=none;html=1;rounded=0;strokeWidth=3;fillColor=#fff2cc;strokeColor=#d6b656;" edge="1" parent="1" source="19VufMmk_MJ-0cq3kdmR-33" target="19VufMmk_MJ-0cq3kdmR-32">
          <mxGeometry width="50" height="50" relative="1" as="geometry">
            <mxPoint x="220" y="790" as="sourcePoint" />
            <mxPoint x="270" y="740" as="targetPoint" />
          </mxGeometry>
        </mxCell>
        <mxCell id="19VufMmk_MJ-0cq3kdmR-61" value="" style="endArrow=none;html=1;rounded=0;strokeWidth=3;fillColor=#fff2cc;strokeColor=#d6b656;" edge="1" parent="1" source="19VufMmk_MJ-0cq3kdmR-37" target="19VufMmk_MJ-0cq3kdmR-33">
          <mxGeometry width="50" height="50" relative="1" as="geometry">
            <mxPoint x="243" y="695" as="sourcePoint" />
            <mxPoint x="327" y="611" as="targetPoint" />
          </mxGeometry>
        </mxCell>
        <mxCell id="19VufMmk_MJ-0cq3kdmR-62" value="" style="endArrow=none;html=1;rounded=0;strokeWidth=3;fillColor=#fff2cc;strokeColor=#d6b656;" edge="1" parent="1" source="19VufMmk_MJ-0cq3kdmR-46" target="19VufMmk_MJ-0cq3kdmR-37">
          <mxGeometry width="50" height="50" relative="1" as="geometry">
            <mxPoint x="253" y="705" as="sourcePoint" />
            <mxPoint x="337" y="621" as="targetPoint" />
          </mxGeometry>
        </mxCell>
        <mxCell id="19VufMmk_MJ-0cq3kdmR-63" value="" style="endArrow=none;html=1;rounded=0;strokeWidth=3;fillColor=#fff2cc;strokeColor=#d6b656;" edge="1" parent="1" source="19VufMmk_MJ-0cq3kdmR-37" target="19VufMmk_MJ-0cq3kdmR-45">
          <mxGeometry width="50" height="50" relative="1" as="geometry">
            <mxPoint x="263" y="715" as="sourcePoint" />
            <mxPoint x="347" y="631" as="targetPoint" />
          </mxGeometry>
        </mxCell>
        <mxCell id="19VufMmk_MJ-0cq3kdmR-64" value="" style="endArrow=none;html=1;rounded=0;strokeWidth=3;fillColor=#fff2cc;strokeColor=#d6b656;" edge="1" parent="1" source="19VufMmk_MJ-0cq3kdmR-33" target="19VufMmk_MJ-0cq3kdmR-38">
          <mxGeometry width="50" height="50" relative="1" as="geometry">
            <mxPoint x="273" y="725" as="sourcePoint" />
            <mxPoint x="357" y="641" as="targetPoint" />
          </mxGeometry>
        </mxCell>
        <mxCell id="19VufMmk_MJ-0cq3kdmR-65" value="" style="endArrow=none;html=1;rounded=0;strokeWidth=3;fillColor=#fff2cc;strokeColor=#d6b656;" edge="1" parent="1" source="19VufMmk_MJ-0cq3kdmR-34" target="19VufMmk_MJ-0cq3kdmR-32">
          <mxGeometry width="50" height="50" relative="1" as="geometry">
            <mxPoint x="283" y="735" as="sourcePoint" />
            <mxPoint x="367" y="651" as="targetPoint" />
          </mxGeometry>
        </mxCell>
        <mxCell id="19VufMmk_MJ-0cq3kdmR-66" value="" style="endArrow=none;html=1;rounded=0;strokeWidth=3;fillColor=#fff2cc;strokeColor=#d6b656;" edge="1" parent="1" source="19VufMmk_MJ-0cq3kdmR-41" target="19VufMmk_MJ-0cq3kdmR-34">
          <mxGeometry width="50" height="50" relative="1" as="geometry">
            <mxPoint x="293" y="745" as="sourcePoint" />
            <mxPoint x="377" y="661" as="targetPoint" />
          </mxGeometry>
        </mxCell>
        <mxCell id="19VufMmk_MJ-0cq3kdmR-67" value="" style="endArrow=none;html=1;rounded=0;strokeWidth=3;fillColor=#fff2cc;strokeColor=#d6b656;" edge="1" parent="1" source="19VufMmk_MJ-0cq3kdmR-42" target="19VufMmk_MJ-0cq3kdmR-34">
          <mxGeometry width="50" height="50" relative="1" as="geometry">
            <mxPoint x="303" y="755" as="sourcePoint" />
            <mxPoint x="387" y="671" as="targetPoint" />
          </mxGeometry>
        </mxCell>
        <mxCell id="19VufMmk_MJ-0cq3kdmR-68" value="" style="endArrow=none;html=1;rounded=0;strokeWidth=3;fillColor=#fff2cc;strokeColor=#d6b656;" edge="1" parent="1" source="19VufMmk_MJ-0cq3kdmR-2" target="19VufMmk_MJ-0cq3kdmR-1">
          <mxGeometry width="50" height="50" relative="1" as="geometry">
            <mxPoint x="161" y="118" as="sourcePoint" />
            <mxPoint x="245" y="34" as="targetPoint" />
          </mxGeometry>
        </mxCell>
        <mxCell id="19VufMmk_MJ-0cq3kdmR-69" value="" style="endArrow=none;html=1;rounded=0;strokeWidth=3;fillColor=#fff2cc;strokeColor=#d6b656;" edge="1" parent="1" source="19VufMmk_MJ-0cq3kdmR-2" target="19VufMmk_MJ-0cq3kdmR-6">
          <mxGeometry width="50" height="50" relative="1" as="geometry">
            <mxPoint x="213" y="177" as="sourcePoint" />
            <mxPoint x="297" y="93" as="targetPoint" />
          </mxGeometry>
        </mxCell>
        <mxCell id="19VufMmk_MJ-0cq3kdmR-70" value="" style="endArrow=none;html=1;rounded=0;strokeWidth=3;fillColor=#fff2cc;strokeColor=#d6b656;" edge="1" parent="1" source="19VufMmk_MJ-0cq3kdmR-2" target="19VufMmk_MJ-0cq3kdmR-7">
          <mxGeometry width="50" height="50" relative="1" as="geometry">
            <mxPoint x="223" y="187" as="sourcePoint" />
            <mxPoint x="307" y="103" as="targetPoint" />
          </mxGeometry>
        </mxCell>
        <mxCell id="19VufMmk_MJ-0cq3kdmR-71" value="" style="endArrow=none;html=1;rounded=0;strokeWidth=3;fillColor=#fff2cc;strokeColor=#d6b656;" edge="1" parent="1" source="19VufMmk_MJ-0cq3kdmR-16" target="19VufMmk_MJ-0cq3kdmR-6">
          <mxGeometry width="50" height="50" relative="1" as="geometry">
            <mxPoint x="233" y="197" as="sourcePoint" />
            <mxPoint x="317" y="113" as="targetPoint" />
          </mxGeometry>
        </mxCell>
        <mxCell id="19VufMmk_MJ-0cq3kdmR-72" value="" style="endArrow=none;html=1;rounded=0;strokeWidth=3;fillColor=#fff2cc;strokeColor=#d6b656;" edge="1" parent="1" source="19VufMmk_MJ-0cq3kdmR-6" target="19VufMmk_MJ-0cq3kdmR-15">
          <mxGeometry width="50" height="50" relative="1" as="geometry">
            <mxPoint x="243" y="207" as="sourcePoint" />
            <mxPoint x="327" y="123" as="targetPoint" />
          </mxGeometry>
        </mxCell>
        <mxCell id="19VufMmk_MJ-0cq3kdmR-73" value="" style="endArrow=none;html=1;rounded=0;strokeWidth=3;fillColor=#fff2cc;strokeColor=#d6b656;" edge="1" parent="1" source="19VufMmk_MJ-0cq3kdmR-1" target="19VufMmk_MJ-0cq3kdmR-3">
          <mxGeometry width="50" height="50" relative="1" as="geometry">
            <mxPoint x="253" y="217" as="sourcePoint" />
            <mxPoint x="337" y="133" as="targetPoint" />
          </mxGeometry>
        </mxCell>
        <mxCell id="19VufMmk_MJ-0cq3kdmR-74" value="" style="endArrow=none;html=1;rounded=0;strokeWidth=3;fillColor=#fff2cc;strokeColor=#d6b656;" edge="1" parent="1" source="19VufMmk_MJ-0cq3kdmR-11" target="19VufMmk_MJ-0cq3kdmR-3">
          <mxGeometry width="50" height="50" relative="1" as="geometry">
            <mxPoint x="263" y="227" as="sourcePoint" />
            <mxPoint x="347" y="143" as="targetPoint" />
          </mxGeometry>
        </mxCell>
        <mxCell id="19VufMmk_MJ-0cq3kdmR-75" value="" style="endArrow=none;html=1;rounded=0;strokeWidth=3;fillColor=#fff2cc;strokeColor=#d6b656;" edge="1" parent="1" source="19VufMmk_MJ-0cq3kdmR-3" target="19VufMmk_MJ-0cq3kdmR-12">
          <mxGeometry width="50" height="50" relative="1" as="geometry">
            <mxPoint x="273" y="237" as="sourcePoint" />
            <mxPoint x="357" y="153" as="targetPoint" />
          </mxGeometry>
        </mxCell>
        <mxCell id="19VufMmk_MJ-0cq3kdmR-76" value="Alice" style="ellipse;whiteSpace=wrap;html=1;aspect=fixed;" vertex="1" parent="1">
          <mxGeometry x="275" y="1040" width="50" height="50" as="geometry" />
        </mxCell>
        <mxCell id="19VufMmk_MJ-0cq3kdmR-77" value="Bob" style="ellipse;whiteSpace=wrap;html=1;aspect=fixed;" vertex="1" parent="1">
          <mxGeometry x="155" y="1160" width="50" height="50" as="geometry" />
        </mxCell>
        <mxCell id="19VufMmk_MJ-0cq3kdmR-78" value="Charles" style="ellipse;whiteSpace=wrap;html=1;aspect=fixed;" vertex="1" parent="1">
          <mxGeometry x="395" y="1160" width="50" height="50" as="geometry" />
        </mxCell>
        <mxCell id="19VufMmk_MJ-0cq3kdmR-79" value="" style="endArrow=classic;html=1;rounded=0;" edge="1" parent="1" source="19VufMmk_MJ-0cq3kdmR-76" target="19VufMmk_MJ-0cq3kdmR-77">
          <mxGeometry width="50" height="50" relative="1" as="geometry">
            <mxPoint x="255" y="1310" as="sourcePoint" />
            <mxPoint x="305" y="1260" as="targetPoint" />
          </mxGeometry>
        </mxCell>
        <mxCell id="19VufMmk_MJ-0cq3kdmR-80" value="" style="endArrow=classic;html=1;rounded=0;" edge="1" parent="1" source="19VufMmk_MJ-0cq3kdmR-77" target="19VufMmk_MJ-0cq3kdmR-81">
          <mxGeometry width="50" height="50" relative="1" as="geometry">
            <mxPoint x="255" y="1310" as="sourcePoint" />
            <mxPoint x="305" y="1260" as="targetPoint" />
          </mxGeometry>
        </mxCell>
        <mxCell id="19VufMmk_MJ-0cq3kdmR-81" value="Dora" style="ellipse;whiteSpace=wrap;html=1;aspect=fixed;" vertex="1" parent="1">
          <mxGeometry x="65" y="1280" width="50" height="50" as="geometry" />
        </mxCell>
        <mxCell id="19VufMmk_MJ-0cq3kdmR-82" value="Elsa" style="ellipse;whiteSpace=wrap;html=1;aspect=fixed;" vertex="1" parent="1">
          <mxGeometry x="235" y="1280" width="50" height="50" as="geometry" />
        </mxCell>
        <mxCell id="19VufMmk_MJ-0cq3kdmR-83" value="" style="endArrow=classic;html=1;rounded=0;" edge="1" parent="1" source="19VufMmk_MJ-0cq3kdmR-89" target="19VufMmk_MJ-0cq3kdmR-82">
          <mxGeometry width="50" height="50" relative="1" as="geometry">
            <mxPoint x="255" y="1310" as="sourcePoint" />
            <mxPoint x="305" y="1260" as="targetPoint" />
          </mxGeometry>
        </mxCell>
        <mxCell id="19VufMmk_MJ-0cq3kdmR-84" value="" style="endArrow=classic;html=1;rounded=0;" edge="1" parent="1" source="19VufMmk_MJ-0cq3kdmR-78" target="19VufMmk_MJ-0cq3kdmR-85">
          <mxGeometry width="50" height="50" relative="1" as="geometry">
            <mxPoint x="255" y="1310" as="sourcePoint" />
            <mxPoint x="305" y="1260" as="targetPoint" />
          </mxGeometry>
        </mxCell>
        <mxCell id="19VufMmk_MJ-0cq3kdmR-85" value="Fiona" style="ellipse;whiteSpace=wrap;html=1;aspect=fixed;" vertex="1" parent="1">
          <mxGeometry x="315" y="1280" width="50" height="50" as="geometry" />
        </mxCell>
        <mxCell id="19VufMmk_MJ-0cq3kdmR-86" value="Greg" style="ellipse;whiteSpace=wrap;html=1;aspect=fixed;" vertex="1" parent="1">
          <mxGeometry x="485" y="1280" width="50" height="50" as="geometry" />
        </mxCell>
        <mxCell id="19VufMmk_MJ-0cq3kdmR-87" value="" style="endArrow=classic;html=1;rounded=0;" edge="1" parent="1" source="19VufMmk_MJ-0cq3kdmR-81" target="19VufMmk_MJ-0cq3kdmR-90">
          <mxGeometry width="50" height="50" relative="1" as="geometry">
            <mxPoint x="200" y="1340" as="sourcePoint" />
            <mxPoint x="305" y="1260" as="targetPoint" />
          </mxGeometry>
        </mxCell>
        <mxCell id="19VufMmk_MJ-0cq3kdmR-88" value="" style="endArrow=classic;html=1;rounded=0;" edge="1" parent="1" source="19VufMmk_MJ-0cq3kdmR-85" target="19VufMmk_MJ-0cq3kdmR-86">
          <mxGeometry width="50" height="50" relative="1" as="geometry">
            <mxPoint x="255" y="1310" as="sourcePoint" />
            <mxPoint x="305" y="1260" as="targetPoint" />
          </mxGeometry>
        </mxCell>
        <mxCell id="19VufMmk_MJ-0cq3kdmR-89" value="Irene" style="ellipse;whiteSpace=wrap;html=1;aspect=fixed;" vertex="1" parent="1">
          <mxGeometry x="125" y="1380" width="50" height="50" as="geometry" />
        </mxCell>
        <mxCell id="19VufMmk_MJ-0cq3kdmR-90" value="Harry" style="ellipse;whiteSpace=wrap;html=1;aspect=fixed;" vertex="1" parent="1">
          <mxGeometry x="5" y="1380" width="50" height="50" as="geometry" />
        </mxCell>
        <mxCell id="19VufMmk_MJ-0cq3kdmR-91" value="" style="endArrow=classic;html=1;rounded=0;" edge="1" parent="1" source="19VufMmk_MJ-0cq3kdmR-82" target="19VufMmk_MJ-0cq3kdmR-78">
          <mxGeometry width="50" height="50" relative="1" as="geometry">
            <mxPoint x="255" y="1310" as="sourcePoint" />
            <mxPoint x="305" y="1260" as="targetPoint" />
          </mxGeometry>
        </mxCell>
        <mxCell id="19VufMmk_MJ-0cq3kdmR-92" value="" style="endArrow=classic;html=1;rounded=0;" edge="1" parent="1" source="19VufMmk_MJ-0cq3kdmR-90" target="19VufMmk_MJ-0cq3kdmR-89">
          <mxGeometry width="50" height="50" relative="1" as="geometry">
            <mxPoint x="255" y="1310" as="sourcePoint" />
            <mxPoint x="305" y="1260" as="targetPoint" />
          </mxGeometry>
        </mxCell>
        <mxCell id="19VufMmk_MJ-0cq3kdmR-93" value="1" style="text;html=1;align=center;verticalAlign=middle;resizable=0;points=[];autosize=1;strokeColor=none;fillColor=none;" vertex="1" parent="1">
          <mxGeometry x="280" y="1088" width="30" height="30" as="geometry" />
        </mxCell>
        <mxCell id="19VufMmk_MJ-0cq3kdmR-94" value="2" style="text;html=1;align=center;verticalAlign=middle;resizable=0;points=[];autosize=1;strokeColor=none;fillColor=none;" vertex="1" parent="1">
          <mxGeometry x="210" y="1138" width="30" height="30" as="geometry" />
        </mxCell>
        <mxCell id="19VufMmk_MJ-0cq3kdmR-95" value="7" style="text;html=1;align=center;verticalAlign=middle;resizable=0;points=[];autosize=1;strokeColor=none;fillColor=none;" vertex="1" parent="1">
          <mxGeometry x="355" y="1168" width="30" height="30" as="geometry" />
        </mxCell>
        <mxCell id="19VufMmk_MJ-0cq3kdmR-96" value="3" style="text;html=1;align=center;verticalAlign=middle;resizable=0;points=[];autosize=1;strokeColor=none;fillColor=none;" vertex="1" parent="1">
          <mxGeometry x="110" y="1298" width="30" height="30" as="geometry" />
        </mxCell>
        <mxCell id="19VufMmk_MJ-0cq3kdmR-97" value="6" style="text;html=1;align=center;verticalAlign=middle;resizable=0;points=[];autosize=1;strokeColor=none;fillColor=none;" vertex="1" parent="1">
          <mxGeometry x="210" y="1288" width="30" height="30" as="geometry" />
        </mxCell>
        <mxCell id="19VufMmk_MJ-0cq3kdmR-98" value="8" style="text;html=1;align=center;verticalAlign=middle;resizable=0;points=[];autosize=1;strokeColor=none;fillColor=none;" vertex="1" parent="1">
          <mxGeometry x="330" y="1328" width="30" height="30" as="geometry" />
        </mxCell>
        <mxCell id="19VufMmk_MJ-0cq3kdmR-99" value="9" style="text;html=1;align=center;verticalAlign=middle;resizable=0;points=[];autosize=1;strokeColor=none;fillColor=none;" vertex="1" parent="1">
          <mxGeometry x="495" y="1330" width="30" height="30" as="geometry" />
        </mxCell>
        <mxCell id="19VufMmk_MJ-0cq3kdmR-100" value="" style="endArrow=none;html=1;rounded=0;strokeWidth=3;fillColor=#fff2cc;strokeColor=#d6b656;" edge="1" parent="1" source="19VufMmk_MJ-0cq3kdmR-77" target="19VufMmk_MJ-0cq3kdmR-76">
          <mxGeometry width="50" height="50" relative="1" as="geometry">
            <mxPoint x="156" y="1118" as="sourcePoint" />
            <mxPoint x="240" y="1034" as="targetPoint" />
          </mxGeometry>
        </mxCell>
        <mxCell id="19VufMmk_MJ-0cq3kdmR-101" value="" style="endArrow=none;html=1;rounded=0;strokeWidth=3;fillColor=#fff2cc;strokeColor=#d6b656;" edge="1" parent="1" source="19VufMmk_MJ-0cq3kdmR-77" target="19VufMmk_MJ-0cq3kdmR-81">
          <mxGeometry width="50" height="50" relative="1" as="geometry">
            <mxPoint x="208" y="1177" as="sourcePoint" />
            <mxPoint x="292" y="1093" as="targetPoint" />
          </mxGeometry>
        </mxCell>
        <mxCell id="19VufMmk_MJ-0cq3kdmR-102" value="" style="endArrow=none;html=1;rounded=0;strokeWidth=3;fillColor=#fff2cc;strokeColor=#d6b656;" edge="1" parent="1" source="19VufMmk_MJ-0cq3kdmR-77" target="19VufMmk_MJ-0cq3kdmR-82">
          <mxGeometry width="50" height="50" relative="1" as="geometry">
            <mxPoint x="218" y="1187" as="sourcePoint" />
            <mxPoint x="302" y="1103" as="targetPoint" />
          </mxGeometry>
        </mxCell>
        <mxCell id="19VufMmk_MJ-0cq3kdmR-103" value="" style="endArrow=none;html=1;rounded=0;strokeWidth=3;fillColor=#fff2cc;strokeColor=#d6b656;" edge="1" parent="1" source="19VufMmk_MJ-0cq3kdmR-90" target="19VufMmk_MJ-0cq3kdmR-81">
          <mxGeometry width="50" height="50" relative="1" as="geometry">
            <mxPoint x="228" y="1197" as="sourcePoint" />
            <mxPoint x="312" y="1113" as="targetPoint" />
          </mxGeometry>
        </mxCell>
        <mxCell id="19VufMmk_MJ-0cq3kdmR-104" value="" style="endArrow=none;html=1;rounded=0;strokeWidth=3;fillColor=#fff2cc;strokeColor=#d6b656;" edge="1" parent="1" source="19VufMmk_MJ-0cq3kdmR-81" target="19VufMmk_MJ-0cq3kdmR-89">
          <mxGeometry width="50" height="50" relative="1" as="geometry">
            <mxPoint x="238" y="1207" as="sourcePoint" />
            <mxPoint x="322" y="1123" as="targetPoint" />
          </mxGeometry>
        </mxCell>
        <mxCell id="19VufMmk_MJ-0cq3kdmR-105" value="" style="endArrow=none;html=1;rounded=0;strokeWidth=3;fillColor=#fff2cc;strokeColor=#d6b656;" edge="1" parent="1" source="19VufMmk_MJ-0cq3kdmR-76" target="19VufMmk_MJ-0cq3kdmR-78">
          <mxGeometry width="50" height="50" relative="1" as="geometry">
            <mxPoint x="248" y="1217" as="sourcePoint" />
            <mxPoint x="332" y="1133" as="targetPoint" />
          </mxGeometry>
        </mxCell>
        <mxCell id="19VufMmk_MJ-0cq3kdmR-106" value="" style="endArrow=none;html=1;rounded=0;strokeWidth=3;fillColor=#fff2cc;strokeColor=#d6b656;" edge="1" parent="1" source="19VufMmk_MJ-0cq3kdmR-85" target="19VufMmk_MJ-0cq3kdmR-78">
          <mxGeometry width="50" height="50" relative="1" as="geometry">
            <mxPoint x="258" y="1227" as="sourcePoint" />
            <mxPoint x="342" y="1143" as="targetPoint" />
          </mxGeometry>
        </mxCell>
        <mxCell id="19VufMmk_MJ-0cq3kdmR-107" value="" style="endArrow=none;html=1;rounded=0;strokeWidth=3;fillColor=#fff2cc;strokeColor=#d6b656;" edge="1" parent="1" source="19VufMmk_MJ-0cq3kdmR-78" target="19VufMmk_MJ-0cq3kdmR-86">
          <mxGeometry width="50" height="50" relative="1" as="geometry">
            <mxPoint x="268" y="1237" as="sourcePoint" />
            <mxPoint x="352" y="1153" as="targetPoint" />
          </mxGeometry>
        </mxCell>
        <mxCell id="19VufMmk_MJ-0cq3kdmR-108" value="Prefixe" style="text;html=1;align=center;verticalAlign=middle;resizable=0;points=[];autosize=1;strokeColor=none;fillColor=none;" vertex="1" parent="1">
          <mxGeometry y="1038" width="60" height="30" as="geometry" />
        </mxCell>
        <mxCell id="19VufMmk_MJ-0cq3kdmR-109" value="4" style="text;html=1;align=center;verticalAlign=middle;resizable=0;points=[];autosize=1;strokeColor=none;fillColor=none;" vertex="1" parent="1">
          <mxGeometry x="15" y="1428" width="30" height="30" as="geometry" />
        </mxCell>
        <mxCell id="19VufMmk_MJ-0cq3kdmR-110" value="5" style="text;html=1;align=center;verticalAlign=middle;resizable=0;points=[];autosize=1;strokeColor=none;fillColor=none;" vertex="1" parent="1">
          <mxGeometry x="135" y="1428" width="30" height="30" as="geometry" />
        </mxCell>
        <mxCell id="19VufMmk_MJ-0cq3kdmR-111" value="Alice" style="ellipse;whiteSpace=wrap;html=1;aspect=fixed;" vertex="1" parent="1">
          <mxGeometry x="275" y="1520" width="50" height="50" as="geometry" />
        </mxCell>
        <mxCell id="19VufMmk_MJ-0cq3kdmR-112" value="Bob" style="ellipse;whiteSpace=wrap;html=1;aspect=fixed;" vertex="1" parent="1">
          <mxGeometry x="155" y="1640" width="50" height="50" as="geometry" />
        </mxCell>
        <mxCell id="19VufMmk_MJ-0cq3kdmR-113" value="Charles" style="ellipse;whiteSpace=wrap;html=1;aspect=fixed;" vertex="1" parent="1">
          <mxGeometry x="395" y="1640" width="50" height="50" as="geometry" />
        </mxCell>
        <mxCell id="19VufMmk_MJ-0cq3kdmR-114" value="" style="endArrow=classic;html=1;rounded=0;" edge="1" parent="1" source="19VufMmk_MJ-0cq3kdmR-112" target="19VufMmk_MJ-0cq3kdmR-120">
          <mxGeometry width="50" height="50" relative="1" as="geometry">
            <mxPoint x="255" y="1790" as="sourcePoint" />
            <mxPoint x="300" y="1760" as="targetPoint" />
          </mxGeometry>
        </mxCell>
        <mxCell id="19VufMmk_MJ-0cq3kdmR-115" value="" style="endArrow=classic;html=1;rounded=0;" edge="1" parent="1" source="19VufMmk_MJ-0cq3kdmR-112" target="19VufMmk_MJ-0cq3kdmR-116">
          <mxGeometry width="50" height="50" relative="1" as="geometry">
            <mxPoint x="255" y="1790" as="sourcePoint" />
            <mxPoint x="305" y="1740" as="targetPoint" />
          </mxGeometry>
        </mxCell>
        <mxCell id="19VufMmk_MJ-0cq3kdmR-116" value="Dora" style="ellipse;whiteSpace=wrap;html=1;aspect=fixed;" vertex="1" parent="1">
          <mxGeometry x="65" y="1760" width="50" height="50" as="geometry" />
        </mxCell>
        <mxCell id="19VufMmk_MJ-0cq3kdmR-117" value="Elsa" style="ellipse;whiteSpace=wrap;html=1;aspect=fixed;" vertex="1" parent="1">
          <mxGeometry x="235" y="1760" width="50" height="50" as="geometry" />
        </mxCell>
        <mxCell id="19VufMmk_MJ-0cq3kdmR-118" value="" style="endArrow=classic;html=1;rounded=0;" edge="1" parent="1" source="19VufMmk_MJ-0cq3kdmR-116" target="19VufMmk_MJ-0cq3kdmR-117">
          <mxGeometry width="50" height="50" relative="1" as="geometry">
            <mxPoint x="255" y="1790" as="sourcePoint" />
            <mxPoint x="305" y="1740" as="targetPoint" />
          </mxGeometry>
        </mxCell>
        <mxCell id="19VufMmk_MJ-0cq3kdmR-119" value="" style="endArrow=classic;html=1;rounded=0;" edge="1" parent="1" source="19VufMmk_MJ-0cq3kdmR-121" target="19VufMmk_MJ-0cq3kdmR-113">
          <mxGeometry width="50" height="50" relative="1" as="geometry">
            <mxPoint x="255" y="1790" as="sourcePoint" />
            <mxPoint x="305" y="1740" as="targetPoint" />
          </mxGeometry>
        </mxCell>
        <mxCell id="19VufMmk_MJ-0cq3kdmR-120" value="Fiona" style="ellipse;whiteSpace=wrap;html=1;aspect=fixed;" vertex="1" parent="1">
          <mxGeometry x="315" y="1760" width="50" height="50" as="geometry" />
        </mxCell>
        <mxCell id="19VufMmk_MJ-0cq3kdmR-121" value="Greg" style="ellipse;whiteSpace=wrap;html=1;aspect=fixed;" vertex="1" parent="1">
          <mxGeometry x="485" y="1760" width="50" height="50" as="geometry" />
        </mxCell>
        <mxCell id="19VufMmk_MJ-0cq3kdmR-122" value="" style="endArrow=classic;html=1;rounded=0;" edge="1" parent="1" source="19VufMmk_MJ-0cq3kdmR-124" target="19VufMmk_MJ-0cq3kdmR-116">
          <mxGeometry width="50" height="50" relative="1" as="geometry">
            <mxPoint x="200" y="1820" as="sourcePoint" />
            <mxPoint x="43" y="1864" as="targetPoint" />
          </mxGeometry>
        </mxCell>
        <mxCell id="19VufMmk_MJ-0cq3kdmR-123" value="" style="endArrow=classic;html=1;rounded=0;" edge="1" parent="1" source="19VufMmk_MJ-0cq3kdmR-120" target="19VufMmk_MJ-0cq3kdmR-121">
          <mxGeometry width="50" height="50" relative="1" as="geometry">
            <mxPoint x="255" y="1790" as="sourcePoint" />
            <mxPoint x="305" y="1740" as="targetPoint" />
          </mxGeometry>
        </mxCell>
        <mxCell id="19VufMmk_MJ-0cq3kdmR-124" value="Irene" style="ellipse;whiteSpace=wrap;html=1;aspect=fixed;" vertex="1" parent="1">
          <mxGeometry x="125" y="1860" width="50" height="50" as="geometry" />
        </mxCell>
        <mxCell id="19VufMmk_MJ-0cq3kdmR-125" value="" style="endArrow=classic;html=1;rounded=0;" edge="1" parent="1" source="19VufMmk_MJ-0cq3kdmR-117" target="19VufMmk_MJ-0cq3kdmR-112">
          <mxGeometry width="50" height="50" relative="1" as="geometry">
            <mxPoint x="255" y="1790" as="sourcePoint" />
            <mxPoint x="305" y="1740" as="targetPoint" />
          </mxGeometry>
        </mxCell>
        <mxCell id="19VufMmk_MJ-0cq3kdmR-126" value="" style="endArrow=classic;html=1;rounded=0;" edge="1" parent="1" target="19VufMmk_MJ-0cq3kdmR-124" source="19VufMmk_MJ-0cq3kdmR-145">
          <mxGeometry width="50" height="50" relative="1" as="geometry">
            <mxPoint x="55" y="1885" as="sourcePoint" />
            <mxPoint x="305" y="1740" as="targetPoint" />
          </mxGeometry>
        </mxCell>
        <mxCell id="19VufMmk_MJ-0cq3kdmR-127" value="9" style="text;html=1;align=center;verticalAlign=middle;resizable=0;points=[];autosize=1;strokeColor=none;fillColor=none;" vertex="1" parent="1">
          <mxGeometry x="280" y="1568" width="30" height="30" as="geometry" />
        </mxCell>
        <mxCell id="19VufMmk_MJ-0cq3kdmR-128" value="5" style="text;html=1;align=center;verticalAlign=middle;resizable=0;points=[];autosize=1;strokeColor=none;fillColor=none;" vertex="1" parent="1">
          <mxGeometry x="210" y="1648" width="30" height="30" as="geometry" />
        </mxCell>
        <mxCell id="19VufMmk_MJ-0cq3kdmR-129" value="8" style="text;html=1;align=center;verticalAlign=middle;resizable=0;points=[];autosize=1;strokeColor=none;fillColor=none;" vertex="1" parent="1">
          <mxGeometry x="355" y="1648" width="30" height="30" as="geometry" />
        </mxCell>
        <mxCell id="19VufMmk_MJ-0cq3kdmR-130" value="3" style="text;html=1;align=center;verticalAlign=middle;resizable=0;points=[];autosize=1;strokeColor=none;fillColor=none;" vertex="1" parent="1">
          <mxGeometry x="110" y="1778" width="30" height="30" as="geometry" />
        </mxCell>
        <mxCell id="19VufMmk_MJ-0cq3kdmR-131" value="4" style="text;html=1;align=center;verticalAlign=middle;resizable=0;points=[];autosize=1;strokeColor=none;fillColor=none;" vertex="1" parent="1">
          <mxGeometry x="215" y="1800" width="30" height="30" as="geometry" />
        </mxCell>
        <mxCell id="19VufMmk_MJ-0cq3kdmR-132" value="6" style="text;html=1;align=center;verticalAlign=middle;resizable=0;points=[];autosize=1;strokeColor=none;fillColor=none;" vertex="1" parent="1">
          <mxGeometry x="330" y="1808" width="30" height="30" as="geometry" />
        </mxCell>
        <mxCell id="19VufMmk_MJ-0cq3kdmR-133" value="7" style="text;html=1;align=center;verticalAlign=middle;resizable=0;points=[];autosize=1;strokeColor=none;fillColor=none;" vertex="1" parent="1">
          <mxGeometry x="495" y="1810" width="30" height="30" as="geometry" />
        </mxCell>
        <mxCell id="19VufMmk_MJ-0cq3kdmR-134" value="" style="endArrow=none;html=1;rounded=0;strokeWidth=3;fillColor=#fff2cc;strokeColor=#d6b656;" edge="1" parent="1" source="19VufMmk_MJ-0cq3kdmR-112" target="19VufMmk_MJ-0cq3kdmR-111">
          <mxGeometry width="50" height="50" relative="1" as="geometry">
            <mxPoint x="156" y="1598" as="sourcePoint" />
            <mxPoint x="240" y="1514" as="targetPoint" />
          </mxGeometry>
        </mxCell>
        <mxCell id="19VufMmk_MJ-0cq3kdmR-135" value="" style="endArrow=none;html=1;rounded=0;strokeWidth=3;fillColor=#fff2cc;strokeColor=#d6b656;" edge="1" parent="1" source="19VufMmk_MJ-0cq3kdmR-112" target="19VufMmk_MJ-0cq3kdmR-116">
          <mxGeometry width="50" height="50" relative="1" as="geometry">
            <mxPoint x="208" y="1657" as="sourcePoint" />
            <mxPoint x="292" y="1573" as="targetPoint" />
          </mxGeometry>
        </mxCell>
        <mxCell id="19VufMmk_MJ-0cq3kdmR-136" value="" style="endArrow=none;html=1;rounded=0;strokeWidth=3;fillColor=#fff2cc;strokeColor=#d6b656;" edge="1" parent="1" source="19VufMmk_MJ-0cq3kdmR-112" target="19VufMmk_MJ-0cq3kdmR-117">
          <mxGeometry width="50" height="50" relative="1" as="geometry">
            <mxPoint x="218" y="1667" as="sourcePoint" />
            <mxPoint x="302" y="1583" as="targetPoint" />
          </mxGeometry>
        </mxCell>
        <mxCell id="19VufMmk_MJ-0cq3kdmR-137" value="" style="endArrow=none;html=1;rounded=0;strokeWidth=3;fillColor=#fff2cc;strokeColor=#d6b656;" edge="1" parent="1" target="19VufMmk_MJ-0cq3kdmR-116" source="19VufMmk_MJ-0cq3kdmR-145">
          <mxGeometry width="50" height="50" relative="1" as="geometry">
            <mxPoint x="43" y="1864" as="sourcePoint" />
            <mxPoint x="312" y="1593" as="targetPoint" />
          </mxGeometry>
        </mxCell>
        <mxCell id="19VufMmk_MJ-0cq3kdmR-138" value="" style="endArrow=none;html=1;rounded=0;strokeWidth=3;fillColor=#fff2cc;strokeColor=#d6b656;" edge="1" parent="1" source="19VufMmk_MJ-0cq3kdmR-116" target="19VufMmk_MJ-0cq3kdmR-124">
          <mxGeometry width="50" height="50" relative="1" as="geometry">
            <mxPoint x="238" y="1687" as="sourcePoint" />
            <mxPoint x="322" y="1603" as="targetPoint" />
          </mxGeometry>
        </mxCell>
        <mxCell id="19VufMmk_MJ-0cq3kdmR-139" value="" style="endArrow=none;html=1;rounded=0;strokeWidth=3;fillColor=#fff2cc;strokeColor=#d6b656;" edge="1" parent="1" source="19VufMmk_MJ-0cq3kdmR-111" target="19VufMmk_MJ-0cq3kdmR-113">
          <mxGeometry width="50" height="50" relative="1" as="geometry">
            <mxPoint x="248" y="1697" as="sourcePoint" />
            <mxPoint x="332" y="1613" as="targetPoint" />
          </mxGeometry>
        </mxCell>
        <mxCell id="19VufMmk_MJ-0cq3kdmR-140" value="" style="endArrow=none;html=1;rounded=0;strokeWidth=3;fillColor=#fff2cc;strokeColor=#d6b656;" edge="1" parent="1" source="19VufMmk_MJ-0cq3kdmR-120" target="19VufMmk_MJ-0cq3kdmR-113">
          <mxGeometry width="50" height="50" relative="1" as="geometry">
            <mxPoint x="320" y="1710" as="sourcePoint" />
            <mxPoint x="342" y="1623" as="targetPoint" />
          </mxGeometry>
        </mxCell>
        <mxCell id="19VufMmk_MJ-0cq3kdmR-141" value="" style="endArrow=none;html=1;rounded=0;strokeWidth=3;fillColor=#fff2cc;strokeColor=#d6b656;" edge="1" parent="1" source="19VufMmk_MJ-0cq3kdmR-113" target="19VufMmk_MJ-0cq3kdmR-121">
          <mxGeometry width="50" height="50" relative="1" as="geometry">
            <mxPoint x="268" y="1717" as="sourcePoint" />
            <mxPoint x="352" y="1633" as="targetPoint" />
          </mxGeometry>
        </mxCell>
        <mxCell id="19VufMmk_MJ-0cq3kdmR-142" value="1" style="text;html=1;align=center;verticalAlign=middle;resizable=0;points=[];autosize=1;strokeColor=none;fillColor=none;" vertex="1" parent="1">
          <mxGeometry x="15" y="1908" width="30" height="30" as="geometry" />
        </mxCell>
        <mxCell id="19VufMmk_MJ-0cq3kdmR-143" value="2" style="text;html=1;align=center;verticalAlign=middle;resizable=0;points=[];autosize=1;strokeColor=none;fillColor=none;" vertex="1" parent="1">
          <mxGeometry x="135" y="1908" width="30" height="30" as="geometry" />
        </mxCell>
        <mxCell id="19VufMmk_MJ-0cq3kdmR-144" value="PostFixe" style="text;html=1;align=center;verticalAlign=middle;resizable=0;points=[];autosize=1;strokeColor=none;fillColor=none;" vertex="1" parent="1">
          <mxGeometry x="15" y="1538" width="70" height="30" as="geometry" />
        </mxCell>
        <mxCell id="19VufMmk_MJ-0cq3kdmR-145" value="Harry" style="ellipse;whiteSpace=wrap;html=1;aspect=fixed;" vertex="1" parent="1">
          <mxGeometry x="10" y="1860" width="50" height="50" as="geometry" />
        </mxCell>
        <mxCell id="19VufMmk_MJ-0cq3kdmR-146" value="" style="endArrow=classic;html=1;rounded=0;" edge="1" parent="1" source="19VufMmk_MJ-0cq3kdmR-113" target="19VufMmk_MJ-0cq3kdmR-111">
          <mxGeometry width="50" height="50" relative="1" as="geometry">
            <mxPoint x="220" y="1750" as="sourcePoint" />
            <mxPoint x="270" y="1700" as="targetPoint" />
          </mxGeometry>
        </mxCell>
      </root>
    </mxGraphModel>
  </diagram>
</mxfile>
